<svg width="216" height="284" viewBox="0 0 216 284" fill="none" xmlns="http://www.w3.org/2000/svg">
<path d="M0 162.581H24.1936C67.2718 162.581 102.194 197.502 102.194 240.581V283.355H30C13.4314 283.355 0 269.923 0 253.355V162.581Z" fill="#00215F"/>
<path d="M113.806 240.581C113.806 197.502 148.728 162.581 191.806 162.581H216V253.355C216 269.923 202.569 283.355 186 283.355H113.806V240.581Z" fill="#00215F"/>
<path d="M0 6C0 2.68629 2.68629 0 6 0H81.1936C92.7915 0 102.194 9.40202 102.194 21V125.968C102.194 139.775 91.0007 150.968 77.1935 150.968H76C34.0263 150.968 0 116.941 0 74.9678V6Z" fill="#00215F"/>
<path d="M113.806 21C113.806 9.40202 123.208 0 134.806 0H210C213.314 0 216 2.68629 216 6V71.5852C216 115.427 180.459 150.968 136.618 150.968V150.968C124.019 150.968 113.806 140.755 113.806 128.157V21Z" fill="#00215F"/>
<circle cx="106.839" cy="65.0323" r="51.0968" fill="white"/>
</svg>
