<svg width="93" height="122" viewBox="0 0 93 122" fill="none" xmlns="http://www.w3.org/2000/svg">
<path d="M0 70H4C26.0914 70 44 87.9086 44 110V122H6C2.68629 122 0 119.314 0 116V70Z" fill="#004195"/>
<path d="M49 110C49 87.9086 66.9086 70 89 70H93V116C93 119.314 90.3137 122 87 122H49V110Z" fill="#004195"/>
<path d="M0 6C0 2.68629 2.68629 0 6 0H34C39.5228 0 44 4.47715 44 10V50.3333C44 58.4335 37.4335 65 29.3333 65C13.133 65 0 51.867 0 35.6667V6Z" fill="#004195"/>
<path d="M49 10C49 4.47715 53.4772 0 59 0H87C90.3137 0 93 2.68629 93 6V35.6667C93 51.867 79.867 65 63.6667 65C55.5665 65 49 58.4335 49 50.3333V10Z" fill="#004195"/>
<circle cx="46" cy="28" r="22" fill="white"/>
</svg>
