<svg width="265" height="331" viewBox="0 0 265 331" fill="none" xmlns="http://www.w3.org/2000/svg">
<rect width="265" height="331" rx="20" fill="white"/>
<path d="M25 187.581H49.1936C92.2718 187.581 127.194 222.502 127.194 265.581V308.355H55C38.4314 308.355 25 294.923 25 278.355V187.581Z" fill="#00215F"/>
<path d="M138.806 265.581C138.806 222.502 173.728 187.581 216.806 187.581H241V278.355C241 294.923 227.569 308.355 211 308.355H138.806V265.581Z" fill="#00215F"/>
<path d="M25 31C25 27.6863 27.6863 25 31 25H106.194C117.792 25 127.194 34.402 127.194 46V150.968C127.194 164.775 116.001 175.968 102.194 175.968H101C59.0263 175.968 25 141.941 25 99.9678V31Z" fill="#00215F"/>
<path d="M138.806 46C138.806 34.402 148.208 25 159.806 25H235C238.314 25 241 27.6863 241 31V96.5852C241 140.427 205.459 175.968 161.618 175.968V175.968C149.019 175.968 138.806 165.755 138.806 153.157V46Z" fill="#00215F"/>
<circle cx="131.839" cy="90.0323" r="51.0968" fill="white"/>
</svg>
